<?xml version="1.0" encoding="UTF-8"?><svg version="1.1" width="30px" height="30px" viewBox="0 0 30.0 30.0" xmlns="http://www.w3.org/2000/svg" xmlns:xlink="http://www.w3.org/1999/xlink"><defs><clipPath id="i0"><path d="M1920,0 L1920,1080 L0,1080 L0,0 L1920,0 Z"></path></clipPath><clipPath id="i1"><path d="M12.7290755,0 C13.1777767,0 13.5414871,0.363841991 13.5414871,0.81254317 C13.5414871,1.26124435 13.1777109,1.62502056 12.7290097,1.62502056 L9.71249586,1.62502056 L9.65434429,2.85607082 C11.3079144,3.71156984 12.4998899,5.33047265 12.7674924,7.24467226 L13.1352813,7.24467226 C13.5839825,7.24467226 13.9478245,7.60844847 13.9478245,8.05714965 L13.9478245,10.4946476 C13.9478245,10.9435461 13.5840483,11.307125 13.1353471,11.307125 L12.7870298,11.307125 L12.0978942,23.7695848 C12.0286254,25.020304 10.9932118,26 9.74051912,26 L4.20730538,26 C2.95461273,26 1.91913329,25.020304 1.8499303,23.7695848 L1.16079475,11.307125 L0.812477387,11.307125 C0.363776209,11.307125 0,10.9435461 0,10.4946476 L0,8.05714965 C0,7.60844847 0.363776209,7.24467226 0.812477387,7.24460648 L1.18026632,7.24460648 C1.5779862,4.39945552 4.0208783,2.20061582 6.97391225,2.20061582 C7.34327996,2.20061582 7.70330657,2.23890113 8.05379475,2.30455188 L8.12602374,0.774192079 C8.14641626,0.34081818 8.50368001,0 8.93751439,0 Z M7.6291699,11.3071908 L2.7884466,11.3071908 L3.47258269,23.6797919 C3.49415929,24.0695521 3.81695311,24.3750452 4.20730538,24.3750452 L9.74051912,24.3750452 C10.1308714,24.3750452 10.4535994,24.0695521 10.4752418,23.6797919 L11.1594437,11.3071908 L9.25583502,11.3071908 L8.73345765,22.3821042 C8.71306513,22.81732 8.3538279,23.1562963 7.92255903,23.1562963 C7.9096657,23.1562963 7.89677237,23.1559016 7.88368168,23.1555069 C7.4353752,23.134325 7.08922865,22.75384 7.11047634,22.3055336 L7.6291699,11.3071908 Z M7.74415739,8.86969282 L1.62502056,8.86969282 L1.62502056,9.68217021 L7.70587208,9.68217021 L7.74415739,8.86969282 Z M12.3228039,8.86969282 L9.37075672,8.86969282 L9.33247142,9.68217021 L12.3228039,9.68217021 L12.3228039,8.86969282 Z M9.5665249,4.71948649 L9.44739312,7.24467226 L11.1272761,7.24467226 C10.9278899,6.22386228 10.3580177,5.33580101 9.5665249,4.71948649 Z M6.97391225,3.82563638 C4.918478,3.82563638 3.20044125,5.29869979 2.82054837,7.24467226 L7.82079379,7.24467226 L7.9762374,3.94904401 C7.65443031,3.87043414 7.31953254,3.82563638 6.97391225,3.82563638 Z"></path></clipPath></defs><g transform="translate(-1013.0 -306.0)"><g clip-path="url(#i0)"><g transform="translate(1020.9999999999998 308.0)"><g clip-path="url(#i1)"><polygon points="0,0 13.9478245,0 13.9478245,26 0,26 0,0" stroke="none" fill="#404041"></polygon></g></g></g></g></svg>