<?xml version="1.0" encoding="UTF-8"?><svg version="1.1" width="30px" height="30px" viewBox="0 0 30.0 30.0" xmlns="http://www.w3.org/2000/svg" xmlns:xlink="http://www.w3.org/1999/xlink"><defs><clipPath id="i0"><path d="M1920,0 L1920,1080 L0,1080 L0,0 L1920,0 Z"></path></clipPath><clipPath id="i1"><path d="M18.0797163,0 C20.2888553,-4.05812251e-16 22.0797163,1.790861 22.0797163,4 L22.0797163,22 C22.0797163,24.209139 20.2888553,26 18.0797163,26 L4,26 C1.790861,26 2.705415e-16,24.209139 0,22 L0,4 C-2.705415e-16,1.790861 1.790861,4.05812251e-16 4,0 Z M18.2357447,1.84397163 L3.84397163,1.84397163 C2.73940213,1.84397163 1.84397163,2.73940213 1.84397163,3.84397163 L1.84397163,22.1560284 C1.84397163,23.2605979 2.73940213,24.1560284 3.84397163,24.1560284 L18.2357447,24.1560284 C19.3403142,24.1560284 20.2357447,23.2605979 20.2357447,22.1560284 L20.2357447,3.84397163 C20.2357447,2.73940213 19.3403142,1.84397163 18.2357447,1.84397163 Z"></path></clipPath><clipPath id="i2"><path d="M2.3722695,0 L2.3722695,1.84397163 L0,1.84397163 L0,0 L2.3722695,0 Z"></path></clipPath><clipPath id="i3"><path d="M1.4751773,0 L1.4751773,1.84397163 L0,1.84397163 L0,0 L1.4751773,0 Z"></path></clipPath><clipPath id="i4"><path d="M7.70319149,0 C11.9575467,0 15.406383,3.4488363 15.406383,7.70319149 C15.406383,11.9575467 11.9575467,15.406383 7.70319149,15.406383 C3.45073209,15.4018096 0.00457336055,11.9556509 0,7.70319149 C0,3.4488363 3.4488363,0 7.70319149,0 Z M6.46680851,9.04283688 C5.03953226,9.0796496 3.66229426,9.57634778 2.54007092,10.4590071 C3.55744222,12.3661521 5.54165651,13.5588066 7.70319149,13.5624115 C9.52466198,13.5627913 11.2421709,12.7139233 12.348156,11.2666667 C11.3811751,11.0233494 10.4590435,10.6277945 9.61631206,10.0948227 C8.69096788,9.44564126 7.59654778,9.080087 6.46680851,9.04283688 Z M7.70319149,1.84397163 C5.98331964,1.8324952 4.34642793,2.58224816 3.23174627,3.89204802 C2.11706461,5.20184789 1.63873425,6.93757368 1.92510638,8.63347518 C3.26574014,7.72414928 4.84248924,7.22558769 6.46219858,7.19886525 C7.91509687,7.23278363 9.32766796,7.68337269 10.531844,8.49702128 C11.3512127,9.04683268 12.2823545,9.40801619 13.258156,9.55453901 C13.857786,7.76838517 13.5602852,5.80274802 12.4589479,4.27403693 C11.3576105,2.74532583 9.58730698,1.84074772 7.70319149,1.84397163 Z"></path></clipPath></defs><g transform="translate(-1013.0 -238.0)"><g clip-path="url(#i0)"><g transform="translate(1017.0260000000002 239.89999999999998)"><g clip-path="url(#i1)"><polygon points="0,0 22.0797163,0 22.0797163,26 0,26 0,0" stroke="none" fill="#404041"></polygon></g><g transform="translate(15.751205673758868 3.274893617021295)"><g clip-path="url(#i2)"><polygon points="0,0 2.3722695,0 2.3722695,1.84397163 0,1.84397163 0,0" stroke="none" fill="#404041"></polygon></g></g><g transform="translate(3.954397163120556 3.274893617021295)"><g clip-path="url(#i3)"><polygon points="0,0 1.4751773,0 1.4751773,1.84397163 0,1.84397163 0,0" stroke="none" fill="#404041"></polygon></g></g><g transform="translate(6.5553191489361815 3.274893617021295)"><g clip-path="url(#i3)"><polygon points="0,0 1.4751773,0 1.4751773,1.84397163 0,1.84397163 0,0" stroke="none" fill="#404041"></polygon></g></g><g transform="translate(3.3366666666666918 7.344539007092205)"><g clip-path="url(#i4)"><polygon points="0,0 15.406383,0 15.406383,15.406383 0,15.406383 0,0" stroke="none" fill="#404041"></polygon></g></g></g></g></g></svg>