<?xml version="1.0" encoding="UTF-8"?><svg version="1.1" width="30px" height="30px" viewBox="0 0 30.0 30.0" xmlns="http://www.w3.org/2000/svg" xmlns:xlink="http://www.w3.org/1999/xlink"><defs><clipPath id="i0"><path d="M1920,0 L1920,1080 L0,1080 L0,0 L1920,0 Z"></path></clipPath><clipPath id="i1"><path d="M13.0540686,1.58387166 C13.321701,1.73397125 13.4814815,1.98039142 13.4814815,2.24286502 L13.4814815,17.4936247 C13.4814815,17.936928 13.0343804,18.2962963 12.4828532,18.2962963 C12.32507,18.2962963 12.1662881,18.2657948 12.0204883,18.2055944 C8.71216191,16.8185652 4.76931958,16.8185652 1.46099314,18.2055944 C1.15121754,18.3346169 0.780197814,18.3246317 0.481853516,18.1792429 C0.183509218,18.033854 0.00092324408,17.7740567 0,17.4936247 L0,2.24286502 C0,1.98007643 0.160007376,1.73392395 0.428411523,1.58387166 C4.20422497,-0.527957221 9.27725652,-0.527957221 13.0540686,1.58387166 Z M1.92592593,2.98235748 L1.92592593,16.3703704 C3.4646271,15.9165618 5.09590114,15.6841097 6.74074074,15.6842723 C8.37270955,15.6842723 10.005692,15.9129717 11.5555556,16.3703704 L11.5555556,2.98235748 C8.59922085,1.57378207 4.88226063,1.57378207 1.92592593,2.98235748 Z"></path></clipPath><clipPath id="i2"><path d="M13.0540686,1.58387166 C13.321701,1.73397125 13.4814815,1.98039142 13.4814815,2.24286502 L13.4814815,17.4936247 C13.4814815,17.936928 13.0343804,18.2962963 12.4828532,18.2962963 C12.32507,18.2962963 12.1662881,18.2657948 12.0204883,18.2055944 C8.71216191,16.8185652 4.76931958,16.8185652 1.46099314,18.2055944 C1.15121754,18.3346169 0.780197814,18.3246317 0.481853516,18.1792429 C0.183509218,18.033854 0.00092324408,17.7740567 0,17.4936247 L0,2.24286502 C0,1.98007643 0.160007376,1.73392395 0.428411523,1.58387166 C4.20422497,-0.527957221 9.27725652,-0.527957221 13.0540686,1.58387166 Z M1.92592593,2.98235748 L1.92592593,16.3703704 C3.4646271,15.9165618 5.09590114,15.6841097 6.74074074,15.6842723 C8.37270955,15.6842723 10.005692,15.9129717 11.5555556,16.3703704 L11.5555556,2.98235748 C8.59922085,1.57378207 4.88226063,1.57378207 1.92592593,2.98235748 Z"></path></clipPath></defs><g transform="translate(-1013.0 -272.0)"><g clip-path="url(#i0)"><g transform="translate(1016.0 274.0)"><g transform="translate(0.0 7.703703703703702)"><g clip-path="url(#i1)"><polygon points="0,-4.6199526e-17 13.4814815,-4.6199526e-17 13.4814815,18.2962963 0,18.2962963 0,-4.6199526e-17" stroke="none" fill="#404041"></polygon></g></g><g transform="translate(11.555555555555557 7.703703703703702)"><g clip-path="url(#i2)"><polygon points="0,-4.6199526e-17 13.4814815,-4.6199526e-17 13.4814815,18.2962963 0,18.2962963 0,-4.6199526e-17" stroke="none" fill="#404041"></polygon></g></g><g transform="translate(0.9629629629629637 0.0)"><path d="M0,4.81481481 L12.0177778,0 L23.1111111,4.81481481" stroke="#404041" stroke-width="2.5" fill="none" stroke-linecap="round" stroke-linejoin="round"></path></g></g></g></g></svg>