<?xml version="1.0" encoding="UTF-8"?><svg version="1.1" width="30px" height="30px" viewBox="0 0 30.0 30.0" xmlns="http://www.w3.org/2000/svg" xmlns:xlink="http://www.w3.org/1999/xlink"><defs><clipPath id="i0"><path d="M1920,0 L1920,1080 L0,1080 L0,0 L1920,0 Z"></path></clipPath></defs><g transform="translate(-1013.0 -342.0)"><g clip-path="url(#i0)"><g transform="translate(1014.9999999999999 344.0)"><g transform="translate(0.0 6.0)"><path d="M26,4 L26,16 C26,18.209139 24.209139,20 22,20 L4,20 C1.790861,20 0,18.209139 0,16 L0,4 C0,1.790861 1.790861,0 4,0 L16.1,0 C16.5057725,2.00623747 18.0933709,3.5625492 20.1072863,3.92831503 C22.1212018,4.29408086 24.1546697,3.39542449 25.24,1.66 C25.732881,2.34078408 25.998797,3.15952563 26,4 Z" stroke="#404041" stroke-width="2" fill="none" stroke-linecap="round" stroke-linejoin="round"></path></g><g transform="translate(15.999877191297676 0.0)"><path d="M3.00012281,13 L10.0001228,13 L10.0001228,19 L10.0001228,19 L3.00012281,19 C1.34326856,19 0.000122808702,17.6568542 0.000122808702,16 L0.000122808702,16 C0.000122808702,14.3431458 1.34326856,13 3.00012281,13 Z M10.0001254,5 C10.0027044,7.56876551 8.05838049,9.7215532 5.50261886,9.97971094 C2.94685723,10.2378687 0.611294561,8.51739277 0.100122809,6 C0.0312209042,5.671187 -0.00230321688,5.33594579 0.000122808702,5 C0.000122808702,2.23857625 2.23869906,0 5.00012281,0 C7.76154656,0 10.0001254,2.23857625 10.0001254,5 L10.0001254,5 Z M5.00012281,3 L5.00012281,7 M7.00012281,5 L3.00012281,5" stroke="#404041" stroke-width="2" fill="none" stroke-linecap="round" stroke-linejoin="round"></path></g></g></g></g></svg>